<?xml version="1.0" encoding="UTF-8"?>
<svg width="700pt" height="700pt" version="1.1" viewBox="0 0 700 700" xmlns="http://www.w3.org/2000/svg" xmlns:xlink="http://www.w3.org/1999/xlink">
 <g>
  <path fill='#e4003a' d="m338.8 128.8c-15.68 0-28 12.32-28 28v145.6c0 15.68 12.32 28 28 28h95.2c15.68 0 28-12.32 28-28 0-15.68-12.32-28-28-28l-67.20-0.00v-117.6c0-15.68-12.32-28-28-28z"/>
  <path fill='#F8AD07' d="m544.32 243.6c2.80 12.88 14.56 22.40 27.44 22.40 1.68 0 3.92 0 5.60-0.56 15.12-3.35 24.64-17.92 21.28-33.04-21.28-100.8-100.8-178.08-202.16-197.12-15.121-2.80-29.68 7.28-32.48 22.39-2.80 15.12 7.28 29.68 22.40 32.48 79.52 15.12 141.12 75.04 157.92 153.44z"/>
  <path fill="#870b58" d="m350 540.4c126 0 231.28-90.16 251.44-213.92 2.24-15.12-7.83-29.68-22.96-31.92-15.68-2.79-29.68 7.84-32.48 22.96-15.12 96.87-98 166.88-196 166.88-109.76 0-198.8-89.04-198.8-198.8 0-95.76 68.32-177.52 161.84-195.44 15.121-2.80 25.199-17.35 22.39-32.48-2.80-15.121-17.36-25.19-32.48-22.39-120.4 22.40-207.76 127.68-207.76 250.32 0 140.56 114.24 254.8 254.8 254.8z"/>
 </g>
</svg>
