<?xml version="1.0" encoding="UTF-8"?>
<svg width="700pt" height="700pt" version="1.1" viewBox="0 0 700 700" xmlns="http://www.w3.org/2000/svg">
 <path fill='#F8AD07' d="m565.61 280.08h-7.5v70.97h7.5c2.32 0 4.42-0.93 5.91-2.4219l0.054687-0.054687c1.48-1.48 2.42-3.58 2.42-5.91v-54.19c0-2.32-0.93-4.42-2.44-5.94-1.51-1.5-3.63-2.44-5.95-2.44zm-423.23-28.004c3.4805-51.691 26.047-98.367 60.645-132.97 37.699-37.699 89.734-61.117 146.97-61.117 56.816 0 108.53 23.109 146.21 60.395 35.008 34.652 57.855 81.621 61.355 133.69h8.0508c9.9727 0 19.07 4.1016 25.664 10.684l0.054687 0.054688c6.582 6.5938 10.684 15.684 10.684 25.656v54.195c0 9.9414-4.0859 19.027-10.664 25.629l-0.054687 0.054688c-6.6289 6.6133-15.73 10.715-25.684 10.715h-8.5938c-2.1484 11.953-7.4609 22.734-15.324 31.113-10.211 10.867-24.512 17.594-41.645 17.594h-15.055c-6.2969 9.8477-13.645 18.969-21.879 27.203-29.016 29.016-69.066 47.035-113.12 47.035-44.062 0-84.113-18.016-113.13-47.035-29.016-29.016-47.035-69.066-47.035-113.12v-75.785c0-44.051 18.016-84.102 47.035-113.12 29.016-29.016 69.066-47.035 113.12-47.035 44.062 0 84.113 18.016 113.13 47.035 29.016 29.016 47.035 69.066 47.035 113.12v75.785c0 20.391-3.8633 39.93-10.887 57.906h0.78516c8.9297 0 16.23-3.3398 21.297-8.7305 5.5742-5.9414 8.7422-14.543 8.7422-24.18l0.03125-0.95312-0.027344-0.83984v-98.98c0-0.4375 0.019531-0.875 0.058594-1.2969l-0.019532-0.60938c-0.50391-49.086-20.961-93.676-53.613-126-32.555-32.211-77.309-52.18-126.52-52.18-49.527 0-94.559 20.266-127.19 52.902-32.633 32.641-52.902 77.672-52.902 127.18v98.98c0 7.7305-6.2695 14.004-14.004 14.004h-21.508c-9.9531 0-19.055-4.1016-25.656-10.688l-0.054687-0.054688c-6.6016-6.6289-10.688-15.715-10.688-25.656v-54.195c0-9.9727 4.1016-19.062 10.684-25.656l0.054687-0.054688c6.5938-6.582 15.688-10.684 25.664-10.684h7.9766zm-0.46875 28.004h-7.5078c-2.3203 0-4.4375 0.9375-5.9531 2.4414-1.5 1.5156-2.4414 3.625-2.4414 5.9453v54.195c0 2.3281 0.93359 4.4297 2.4219 5.918l0.054688 0.054687c1.4883 1.4883 3.5898 2.4219 5.918 2.4219h7.5078zm208.08 83.34c13.855 0 26.43 5.6406 35.543 14.75l0.054688 0.054687c5.9141 5.918 10.371 13.301 12.766 21.543h70.336c8.6133-17.516 13.453-37.18 13.453-57.906v-75.785c0-36.332-14.867-69.375-38.82-93.328-23.949-23.949-56.996-38.82-93.328-38.82-36.344 0-69.391 14.867-93.34 38.82-23.949 23.949-38.82 56.996-38.82 93.328v75.785c0 36.332 14.867 69.375 38.82 93.328 23.949 23.949 56.996 38.82 93.328 38.82 36.344 0 69.391-14.867 93.34-38.82 2.3828-2.3828 4.6758-4.8555 6.8711-7.4141h-51.844c-2.3945 8.2422-6.8516 15.621-12.766 21.543l-0.054687 0.054688c-9.1133 9.1094-21.688 14.75-35.543 14.75s-26.43-5.6406-35.543-14.75l-0.054687-0.054688c-9.1094-9.1133-14.75-21.688-14.75-35.543 0-13.852 5.6406-26.43 14.75-35.543l0.054687-0.054688c9.1133-9.1094 21.688-14.75 35.543-14.75zm15.836 34.512c-4.0352-4.0156-9.6289-6.5078-15.836-6.5078-6.2031 0-11.801 2.4922-15.836 6.5078-4.0156 4.0352-6.5078 9.6367-6.5078 15.836 0 6.2031 2.4922 11.801 6.5078 15.836 4.0352 4.0156 9.6289 6.5078 15.836 6.5078 6.2 0 11.8-2.49 15.83-6.5 4.01-4.03 6.5-9.62 6.5-15.83 0-6.19-2.49-11.8-6.5-15.83z"/>
</svg>
