<?xml version="1.0" encoding="UTF-8"?>
<svg width="700pt" height="700pt" version="1.1" viewBox="0 0 700 700" xmlns="http://www.w3.org/2000/svg">
 <path fill='#e4003a' d="m350 122.5c9.6641 0 17.5 7.8359 17.5 17.5v149.32l39.938-41.188c6.7266-6.9375 17.809-7.1094 24.746-0.37891 6.9375 6.7266 7.1094 17.809 0.37891 24.746l-70 
   72.188c-3.293 3.3984-7.8281 5.3164-12.562 5.3164s-9.2695-1.918-12.562-5.3164l-70-72.188c-6.7305-6.9375-6.5586-18.02 0.37-24.74 6.93-6.73 18.02-6.55 
   24.746 0.37891l39.938 41.188v-149.32c0-9.6641 7.8359-17.5 17.5-17.5zm-122.5 218.75c9.6641 0 17.5 7.8359 17.5 17.5v8.75c0 9.6641 7.8359 17.5 17.5 17.5h175c9.6641 
   0 17.5-7.8359 17.5-17.5v-8.75c0-9.6641 7.8359-17.5 17.5-17.5s17.5 7.83 17.5 17.5v8.75c0 28.99-23.504 52.5-52.5 52.5h-175c-28.996 0-52.5-23.5-52.5-52.5v-8.75c0-9.6641 
   7.8359-17.5 17.5-17.5z" fill-rule="evenodd"/>
</svg>
