<?xml version="1.0" encoding="UTF-8"?>
<svg width="700pt" height="700pt" version="1.1" viewBox="0 0 700 700" xmlns="http://www.w3.org/2000/svg">
 <g>
  <path fill='#e4003a' d="m381.12 320.75-37.82 37.82-37.82-37.82-30.91-0.015-72.80 72.65 30.89 30.96 57.33-57.22 37.84 37.83h30.93l37.80-37.80 57.02 57.14 30.96-30.89-72.49-72.65z"/>
  <path fill='#F8AD07' d="m87.72 374.78 54.15-54.03 30.89 30.96-54.15 54.03z"/>
  <path fill="#870b58" d="m513.49 351.69 30.89-30.96 54.16 54.03-30.89 30.96z"/>
  <path fill='#e4003a' d="m413.85 222.32c0 39.05-31.65 70.70-70.70 70.70s-70.71-31.65-70.71-70.70c0-39.05 31.66-70.71 70.71-70.71s70.70 31.66 70.70 70.71"/>
  <path fill="#870b58" d="m556.03 220.36c0-32.23-26.13-58.37-58.37-58.37s-58.37 26.133-58.37 58.37 26.13 58.37 58.37 58.37c32.23 0 58.37-26.13 58.37-58.367z"/>
  <path fill='#F8AD07' d="m247 220.36c0-32.234-26.13-58.37-58.37-58.37s-58.37 26.13-58.37 58.37 26.13 58.37 58.36 58.36 58.36-26.13 58.36-58.37z"/>
 </g>
</svg>
