<?xml version="1.0" encoding="UTF-8"?>
<svg width="700pt" height="700pt" version="1.1" viewBox="0 0 700 700" xmlns="http://www.w3.org/2000/svg" xmlns:xlink="http://www.w3.org/1999/xlink">
 <g>
  <path fill='#e4003a' d="m542.5 402.5h-43.75v-358.75c0-4.83-3.91-8.75-8.75-8.75h-332.5c-4.83 0-8.75 3.91-8.75 8.75v420c0 33.77 27.47 61.25 61.25 61.25h280c16.43 0 31.82-6.39 43.26-17.93 11.60-11.49 17.98-26.87 17.98-43.31v-52.5c0-4.83-3.91-8.75-8.75-8.75zm-376.25 61.25v-411.25h315v350h-218.75c-4.83 
    0-8.75 3.91-8.75 8.75v52.5c0 11.73-4.55 22.70-12.86 30.94-8.18 8.26-19.15 12.8-30.88 12.8-24.12 
    0-43.75-19.62-43.75-43.75zm367.5 0c0 11.73-4.55 22.7-12.86 30.94-8.18 8.26-19.15 12.8-30.88 
    12.8h-237.17c0.14-0.14 0.28-0.28 0.43-0.43 11.59-11.49 17.98-26.87 17.98-43.31v-43.75h262.5z"/>
  <line stroke='#870b58' x1="220" y1="150" x2="420" y2="150" stroke-linecap="round" stroke-width="24" />
  <line stroke='#870b58' x1="220" y1="250" x2="350" y2="250" stroke-linecap="round" stroke-width="24" />
  <line stroke='#870b58' x1="220" y1="350" x2="350" y2="350" stroke-linecap="round" stroke-width="24" />
 </g>
</svg>
