<?xml version="1.0" encoding="UTF-8"?>
<svg width="700pt" height="700pt" version="1.1" viewBox="0 0 700 700" xmlns="http://www.w3.org/2000/svg" xmlns:xlink="http://www.w3.org/1999/xlink">
 <g>
  <path fill="#F8AD07" d="m290.25 342.04h-145.95c6.6211-40.023 27.926-118.45 95.504-184.35l32.148 90.027c2.7734 7.7383 10.098 12.902 18.297 12.902h144.56c10.723 0 19.434-8.7031 19.434-19.426 0-10.723-8.707-19.422-19.434-19.422h-130.87l-38.551-107.99c-0.46484-1.3281-1.0859-2.5547-1.793-3.707-0.87891-1.6797-1.9023-3.3203-3.1758-4.832-9.2383-10.949-25.562-12.336-36.488-3.1367-130.56 109.95-134.28 259.14-134.39 265.45-0.10156 6.9336 2.58 
    13.62 7.44 18.55 4.87 4.93 11.51 7.72 18.44 7.72h148.9v140.27c0 14.297 11.594 25.895 25.89 25.89 14.29 0 25.89-11.59 25.89-25.89l0.003906-166.16c0.011719-14.3-11.594-25.906-25.88-25.9z"/>
  <path fill="#F8AD07" d="m372.79 56.645c0 31.281-25.363 56.64-56.645 56.64-31.285 0-56.64-25.363-56.645-56.64 0-31.285 25.35-56.645 56.645-56.645 31.281 0 56.64 25.35 56.64 56.645"/>
  <path fill="#870b58" d="m475.82 286.47h-74.449c-7.15 0-12.953 5.7891-12.953 12.945s5.8 12.94 12.95 12.94h74.45c7.16 0 12.94-5.78 12.94-12.94 0.0039-7.1523-5.7812-12.945-12.949-12.945z"/>
  <path fill="#870b58" d="m557.09 206.41c-1.1406-2.36-3.0312-4.0273-5.125-5.2734l58.5-136.11-35.699-15.348-84.87 197.5 35.69 15.34 14.02-32.66 27.25 56.62h-39.26c-7.16 0-12.94 5.7969-12.945 12.945 0 7.1562 5.7852 12.945 12.945 12.945h59.879c4.4336 0 8.5977-2.2852 10.953-6.0547 2.375-3.7695 2.625-8.5 0.71875-12.504z"/>
 </g>
</svg>
