<?xml version="1.0" encoding="UTF-8"?>
<svg width="700pt" height="700pt" version="1.1" viewBox="0 0 700 700" xmlns="http://www.w3.org/2000/svg" xmlns:xlink="http://www.w3.org/1999/xlink">
 <g>
  <path fill="#F8AD07" d="m290.25 342.04h-145.95c6.6211-40.023 27.926-118.45 95.504-184.35l32.148 90.027c2.7734 7.7383 10.098 12.902 18.297 12.902h144.56c10.723 0 19.434-8.7031 19.434-19.426 0-10.723-8.707-19.422-19.434-19.422h-130.87l-38.551-107.99c-0.46484-1.3281-1.0859-2.5547-1.793-3.707-0.87891-1.6797-1.9023-3.3203-3.1758-4.832-9.2383-10.949-25.562-12.336-36.488-3.1367-130.56 109.95-134.28 259.14-134.39 265.45-0.10156 6.9336 2.582 13.621 7.4414 18.559 4.8711 4.9375 11.512 7.7227 18.445 7.7227h148.9v140.27c0 14.297 11.594 25.895 25.898 25.895 14.293 0 25.895-11.598 25.895-25.895l0.003906-166.16c0.011719-14.309-11.594-25.906-25.883-25.906z"/>
  <path fill="#F8AD07" d="m372.79 56.645c0 31.281-25.363 56.645-56.645 56.645-31.285 0-56.645-25.363-56.645-56.645 0-31.285 25.359-56.645 56.645-56.645 31.281 0 56.645 25.359 56.645 56.645"/>
  <path fill="#870b58" d="m475.82 286.47h-74.449c-7.1523 0-12.953 5.7891-12.953 12.945s5.8008 12.945 12.953 12.945h74.453c7.1641 0 12.945-5.7852 12.945-12.945 0.003906-7.1523-5.7812-12.945-12.949-12.945z"/>
  <path fill="#870b58" d="m557.09 206.41c-1.1406-2.3633-3.0312-4.0273-5.125-5.2734l58.5-136.11-35.699-15.348-84.875 197.5 35.699 15.34 14.027-32.664 27.254 56.621h-39.266c-7.1641 0-12.945 5.7969-12.945 12.945 0 7.1562 5.7852 12.945 12.945 12.945h59.879c4.4336 0 8.5977-2.2852 10.953-6.0547 2.375-3.7695 2.625-8.5 0.71875-12.504z"/>
 </g>
</svg>
