<?xml version="1.0" encoding="UTF-8"?>
<svg width="700pt" height="700pt" version="1.1" viewBox="0 0 700 700" xmlns="http://www.w3.org/2000/svg">
 <path fill='#F8AD07' d="m565.61 280.08h-7.5v70.97h7.5c2.32 0 4.42-0.93 5.91-2.42l0.054-0.054c1.48-1.48 2.42-3.58 2.42-5.91v-54.19
   c0-2.32-0.93-4.42-2.44-5.94-1.51-1.5-3.63-2.44-5.95-2.44z
   m-423.23-28c3.48-51.69 26.04-98.36 60.64-132.97 37.69-37.69 89.73-61.11 146.97-61.11 56.81 0 108.53 23.1 146.21 60.39 35 34.65 57.85 81.62 61.35 133.69
   h8.05c9.97 0 19.07 4.1 25.66 10.68l0.05 0.05
   c6.58 6.59 10.68 15.68 10.68 25.65v54.19c0 9.94-4.08 19.02-10.66 25.62
   l-0.05 0.05c-6.6 6.61-15.73 10.71-25.68 10.71h-8.59c-2.14 11.95-7.46 22.73-15.32 31.11-10.21 10.86-24.51 
   17.59-41.64 17.59h-15.05c-6.29 9.84-13.64 18.96-21.87 27.2-29 29-69 47-113.12 47-44 0-84.11-18.01-113.13-47.03-29.01-29-47.03-69-47-113.12
   v-75.78c0-44 18-84.1 47-113.12 29-29 69-47 113.12-47 44 0 84.11 18 113.13 47 29 29 47 69 47 113.12
   v75.78c0 20.39-3.86 39.93-10.88 57.9
   h0.786c8.92 0 16.23-3.33 21.29-8.73 5.57-5.94 8.74-14.54 8.74-24.18
   l0.03-0.95-0.027-0.83v-98.98c0-0.43 0.019-0.87 0.058-1.29l-0.019-0.6c-0.5-49.08-20.96-93.67-53.61-126-32.55-32.21-77.3-52.18-126.52-52.18-49.52 0-94.55 20.26-127.19 52.9-32.63 32.64-52.9 
   77.67-52.9 127.18v98.98c0 7.73-6.26 14-14 14h-21.5c-9.95 0-19.05-4.1-25.65-10.68l-0.054-0.054c-6.6-6.62-10.68-15.71-10.68-25.65
   v-54.19c0-9.97 4.1-19.06 10.68-25.65l0.054-0.054c6.59-6.58 15.68-10.68 25.66-10.68h7.97z
   m-0.46 28h-7.5c-2.32 0-4.43 0.93-5.95 2.44-1.5 1.51-2.44 3.62-2.44 5.94
   v54.19c0 2.32 0.93 4.42 2.42 5.91l0.054 0.054c1.48 1.48 3.58 2.42 5.91 2.42 h7.5z
   m208 83.34c13.85 0 26.43 5.64 35.54 14.75l0.05 0.054c5.91 5.91 10.37 13.3 12.76 21.54
   h70.33c8.61-17.51 13.45-37.18 13.45-57.9
   v-75.78c0-36.33-14.86-69.37-38.82-93.32-23.94-23.94-56.99-38.82-93.32-38.82-36.34 0-69.39 14.86-93.34 38.82-23.94 23.94-38.82 56.99-38.82 93.32
   v75.78
   c0 36.33 14.86 69.37 38.82 93.32 
   23.94 23.94 56.99 38.82 93.32 38.82 36.34 0 69.39-14.86 93.34-38.82 2.38-2.38 4.67-4.85 6.87-7.41
   h-51.84
   c-2.39 8.24-6.85 15.62-12.76 21.54
   l-0.054 0.054  c-9.11 9.1-21.68 14.75-35.54 14.75  s-26.43-5.64-35.54-14.75
   l-0.054-0.054  c-9.1-9.11-14.75-21.68-14.75-35.54  0 -13.85 5.64-26.43 14.75-35.54
   l0.054-0.054   c9.11-9.1 21.68-14.75 35.54-14.75  z
   m15.83 34.51   c-4.03-4.01-9.62-6.5-15.83-6.5-6.2  0-11.8 2.49-15.83 6.5-4.01 4.03-6.5 9.63-6.5 15.83 0 6.2 
   2.49 11.8 6.5 15.83 4.03 4.01 9.62 6.5 15.83 6.5 6.2 0 11.8-2.49 15.83-6.5 4.01-4.03 6.5-9.62 6.5-15.83 0-6.19-2.49-11.8-6.5-15.83z"/>
</svg>
