<?xml version="1.0" encoding="UTF-8"?>
<svg width="700pt" height="700pt" version="1.1" viewBox="0 0 700 700" xmlns="http://www.w3.org/2000/svg" xmlns:xlink="http://www.w3.org/1999/xlink">
 <g>
  <path fill='#e4003a' d="m508.39 121.61c-30.61-30.62-80.25-30.62-110.88 0l-31.68 31.67c-4.37 4.37-4.37 11.46 0 15.84 4.37 4.37 11.47 4.37 15.84 0l31.67-31.68c21.87-21.87 57.32-21.87 79.19 0 21.87 21.87 21.87 57.32 0 79.20l-95.03 95.03c-21.87 21.87-57.32 21.87-79.19 0-4.37-4.37-11.46-4.37-15.84 0-4.37 4.36-4.37 11.46 0 15.83 30.62 30.62 80.25 30.62 110.88 0l95.04-95.09c30.62-30.61 30.62-80.24 0-110.87z"/>
  <path fill='#F8AD07' d="m334.16 390.88c-4.37-4.37-11.46-4.37-15.83 0l-31.68 31.68c-21.87 21.87-57.32 21.87-79.19 0-21.87-21.85-21.87-57.32 0-79.19l95.039-95.03c21.85-21.87 57.32-21.87 79.19 0 4.36 4.37 11.46 4.37 15.83 0 4.37-4.37 4.37-11.46 0-15.83-30.62-30.62-80.25-30.62-110.88 0l-95.03 95.03c-30.62 30.62-30.62 80.25 0 110.88s80.25 30.62 110.88 0l31.68-31.68c4.37-4.36 4.37-11.46-0.001-15.83z"/>
 </g>
</svg>
