<?xml version="1.0" encoding="UTF-8"?>
<svg width="700pt" height="700pt" version="1.1" viewBox="0 0 700 700" xmlns="http://www.w3.org/2000/svg" xmlns:xlink="http://www.w3.org/1999/xlink">
 <g>
  <path transform="translate(0,30)" fill='#F8AD07' d="m482.3 262.5h-264.6c-4.6406 0-9.08 1.84-12.37 5.12-3.28 3.28-5.12 7.73-5.12 12.37v148.75c0 4.64 1.84 9.09 5.12 12.37 3.28 3.28 7.73 
  5.125 12.375 5.125h264.6c4.64 0 9.08-1.84 12.37-5.12 3.28-3.28 5.125-7.73 5.12-12.37v-148.75c0-4.64-1.84-9.09-5.12-12.37-3.28-3.28-7.73-5.125-12.375-5.125zm-17.5 
  74.28h-97.3v-39.28h97.3zm-132.3-39.28v39.28h-97.3v-39.28zm-97.3 74.28h97.3v39.46h-97.3zm132.3 39.46v-39.37h97.3v39.37zm192.5-252.61c-0.11-0.25-0.26-0.48-0.4375-0.69-0.35-0.78-0.76562-1.5469-1.2266-2.2734l-0.875-1.0508-1.3984-1.5742-128.1-120.84-1.1367-0.96094-1.2266-0.96094-1.5742-0.875-1.3984-0.69922-1.8359-0.52344-1.3984-0.4375-0.003906-0.003907c-1.1328-0.12891-2.2773-0.12891-3.4102 
  0h-207.03c-18.562 0-36.371 7.375-49.496 20.5-13.129 13.129-20.504 30.934-20.504
  49.5v364.88c0 18.562 7.375 36.371 20.504 49.496 13.125 13.129 30.934 20.504 49.496 20.504h282.1c18.562 0 36.371-7.375 
  49.496-20.504 13.129-13.125 20.504-30.934 20.504-49.496v-297.06c0.10547-2.3516-0.25391-4.6992-1.0508-6.9141zm-126.52-73.148 
  66.062 62.562h-66.062zm57.57 412.12h-282.1c-9.28 0-18.18-3.68-24.746-10.254-6.56-6.56-10.254-15.465-10.254-24.746v-365.23c0-9.2812 3.6875-18.184 10.254-24.746 
  6.56-6.56 15.46-10.25 24.746-10.25h189.53v103.16c0 4.64 1.84 9.08 5.12 12.37 3.28 3.28 7.73 5.125 12.375 5.12h110.07v279.56c0 9.28-3.68 
  18.18-10.25 24.74-6.56 6.56-15.46 10.25-24.74 10.25z"/>
 </g>
</svg>
