<?xml version="1.0" encoding="UTF-8"?>
<svg width="700pt" height="700pt" version="1.1" viewBox="0 0 700 700" xmlns="http://www.w3.org/2000/svg" xmlns:xlink="http://www.w3.org/1999/xlink">
<g  fill="#870b58">
  <path d="m183.75 175h-43.75c-4.6406 0-9.0938 1.8438-12.375 5.125s-5.125 7.7344-5.125 12.375v43.75c0 4.6406 1.8438 9.0938 5.125 12.375s7.7344 5.125 12.375 5.125h43.75c4.6406 0 9.0938-1.8438 12.375-5.125s5.125-7.7344 5.125-12.375v-43.75c0-4.6406-1.8438-9.0938-5.125-12.375s-7.7344-5.125-12.375-5.125zm-43.75 61.25v-43.75h43.75v43.75z"/>
  <path d="m280 175h-43.75c-4.6406 0-9.0938 1.8438-12.375 5.125s-5.125 7.7344-5.125 12.375v43.75c0 4.6406 1.8438 9.0938 5.125 12.375s7.7344 5.125 12.375 5.125h43.75c4.6406 0 9.0938-1.8438 12.375-5.125s5.125-7.7344 5.125-12.375v-43.75c0-4.6406-1.8438-9.0938-5.125-12.375s-7.7344-5.125-12.375-5.125zm-43.75 61.25v-43.75h43.75v43.75z"/>
  <path d="m183.75 271.25h-43.75c-4.6406 0-9.0938 1.8438-12.375 5.125s-5.125 7.7344-5.125 12.375v43.75c0 4.6406 1.8438 9.0938 5.125 12.375s7.7344 5.125 12.375 5.125h43.75c4.6406 0 9.0938-1.8438 12.375-5.125s5.125-7.7344 5.125-12.375v-43.75c0-4.6406-1.8438-9.0938-5.125-12.375s-7.7344-5.125-12.375-5.125zm-43.75 61.25v-43.75h43.75v43.75z"/>
  <path d="m280 271.25h-43.75c-4.6406 0-9.0938 1.8438-12.375 5.125s-5.125 7.7344-5.125 12.375v43.75c0 4.6406 1.8438 9.0938 5.125 12.375s7.7344 5.125 12.375 5.125h43.75c4.6406 0 9.0938-1.8438 12.375-5.125s5.125-7.7344 5.125-12.375v-43.75c0-4.6406-1.8438-9.0938-5.125-12.375s-7.7344-5.125-12.375-5.125zm-43.75 61.25v-43.75h43.75v43.75z"/>
  <path d="m183.75 367.5h-43.75c-4.6406 0-9.0938 1.8438-12.375 5.125s-5.125 7.7344-5.125 12.375v43.75c0 4.6406 1.8438 9.0938 5.125 12.375s7.7344 5.125 12.375 5.125h43.75c4.6406 0 9.0938-1.8438 12.375-5.125s5.125-7.7344 5.125-12.375v-43.75c0-4.6406-1.8438-9.0938-5.125-12.375s-7.7344-5.125-12.375-5.125zm-43.75 61.25v-43.75h43.75v43.75z"/>
  <path d="m280 367.5h-43.75c-4.6406 0-9.0938 1.8438-12.375 5.125s-5.125 7.7344-5.125 12.375v43.75c0 4.6406 1.8438 9.0938 5.125 12.375s7.7344 5.125 12.375 5.125h43.75c4.6406 0 9.0938-1.8438 12.375-5.125s5.125-7.7344 5.125-12.375v-43.75c0-4.6406-1.8438-9.0938-5.125-12.375s-7.7344-5.125-12.375-5.125zm-43.75 61.25v-43.75h43.75v43.75z"/>
<path d="m586.25 192.5h-61.25v-105c-0.019531-6.957-2.793-13.621-7.7109-18.539-4.918-4.918-11.582-7.6914-18.539-7.7109h-70v-17.5c0-9.3789-5.0039-18.043-13.125-22.734-8.1211-4.6875-18.129-4.6875-26.25 0-8.1211 4.6914-13.125 13.355-13.125 22.734v17.5h-140v-17.5c0-9.3789-5.0039-18.043-13.125-22.734-8.1211-4.6875-18.129-4.6875-26.25 0-8.1211 4.6914-13.125 13.355-13.125 22.734v17.5h-70c-6.957 0.019531-13.621 2.793-18.539 7.7109-4.918 4.918-7.6914 11.582-7.7109 18.539v367.5c0.019531 6.957 2.793 13.621 7.7109 18.539 4.918 4.918 11.582 7.6914 18.539 7.7109h253.75v35c0.019531 6.957 2.793 13.621 7.7109 18.539 4.918 4.918 11.582 7.6914 18.539 7.7109h192.5c6.957-0.019531 13.621-2.793 18.539-7.7109 4.918-4.918 7.6914-11.582 7.7109-18.539v-297.5c-0.019531-6.957-2.793-13.621-7.7109-18.539-4.918-4.918-11.582-7.6914-18.539-7.7109zm-192.5-148.75c0-4.832 3.918-8.75 8.75-8.75s8.75 3.918 8.75 8.75v52.5c0 4.832-3.918 8.75-8.75 8.75s-8.75-3.918-8.75-8.75zm-192.5 0c0-4.832 3.918-8.75 8.75-8.75s8.75 3.918 8.75 8.75v52.5c0 4.832-3.918 8.75-8.75 8.75s-8.75-3.918-8.75-8.75zm-96.25 43.75c0-4.832 3.918-8.75 8.75-8.75h70v17.5c0 9.3789 5.0039 18.043 13.125 22.734 8.1211 4.6875 18.129 4.6875 26.25 0 8.1211-4.6914 13.125-13.355 13.125-22.734v-17.5h140v17.5c0 9.3789 5.0039 18.043 13.125 22.734 8.1211 4.6875 18.129 4.6875 26.25 0 8.1211-4.6914 13.125-13.355 13.125-22.734v-17.5h70c2.3203 0 4.5469 0.92188 6.1875 2.5625s2.5625 3.8672 2.5625 6.1875v52.5h-402.5zm262.5 341.25h-35v-43.75h35zm0-96.25h-35v-43.75h35zm8.75-133.18c-5.543 4.9375-8.7266 12-8.75 19.426v17.5h-35v-43.75h43.75zm-43.75-24.324c-4.6367 0.015625-9.082 1.8633-12.359 5.1406s-5.125 7.7227-5.1406 12.359v43.75c0.015625 4.6367 1.8633 9.082 5.1406 12.359s7.7227 5.125 12.359 5.1406h35v17.5h-35c-4.6367 0.015625-9.082 1.8633-12.359 5.1406s-5.125 7.7227-5.1406 12.359v43.75c0.015625 4.6367 1.8633 9.082 5.1406 12.359s7.7227 5.125 12.359 5.1406h35v17.5h-35c-4.6367 0.015625-9.082 1.8633-12.359 5.1406s-5.125 7.7227-5.1406 12.359v43.75c0.015625 4.6367 1.8633 9.082 5.1406 12.359s7.7227 5.125 12.359 5.1406h35v17.5h-253.75c-4.832 0-8.75-3.918-8.75-8.75v-297.5h402.5v35h-17.5c-0.015625-4.6367-1.8633-9.082-5.1406-12.359s-7.7227-5.125-12.359-5.1406h-43.75c-4.6367 0.015625-9.082 1.8633-12.359 5.1406s-5.125 7.7227-5.1406 12.359h-17.5c-0.015625-4.6367-1.8633-9.082-5.1406-12.359s-7.7227-5.125-12.359-5.1406zm262.5 341.25c0 2.3203-0.92188 4.5469-2.5625 6.1875s-3.8672 2.5625-6.1875 2.5625h-192.5c-4.832 0-8.75-3.918-8.75-8.75v-297.5c0-4.832 3.918-8.75 8.75-8.75h192.5c2.3203 0 4.5469 0.92188 6.1875 2.5625s2.5625 3.8672 2.5625 6.1875z"/>      
</g>

<g fill="#e4003a">
  <path d="m560 227.5h-140c-4.6406 0-9.0938 1.8438-12.375 5.125s-5.125 7.7344-5.125 12.375v52.5c0 4.6406 1.8438 9.0938 5.125 12.375s7.7344 5.125 12.375 5.125h140c4.6406 0 9.0938-1.8438 12.375-5.125s5.125-7.7344 5.125-12.375v-52.5c0-4.6406-1.8438-9.0938-5.125-12.375s-7.7344-5.125-12.375-5.125zm0 70h-140v-52.5h140z"/>
  <path d="m516.25 262.5h17.5v17.5h-17.5z"/>
  <path d="m481.25 262.5h17.5v17.5h-17.5z"/>
  <path d="m446.25 262.5h17.5v17.5h-17.5z"/>
  <path d="m560 332.5h-140c-4.6406 0-9.0938 1.8438-12.375 5.125s-5.125 7.7344-5.125 12.375v140c0 4.6406 1.8438 9.0938 5.125 12.375s7.7344 5.125 12.375 5.125h140c4.6406 0 9.0938-1.8438 12.375-5.125s5.125-7.7344 5.125-12.375v-140c0-4.6406-1.8438-9.0938-5.125-12.375s-7.7344-5.125-12.375-5.125zm0 52.5h-35v-35h35zm-87.5 52.5v-35h35v35zm35 17.5v35h-35v-35zm-52.5-17.5h-35v-35h35zm17.5-52.5v-35h35v35zm52.5 17.5h35v35h-35zm-70-52.5v35h-35v-35zm-35 105h35v35h-35zm105 35v-35h35v35z"/>
</g>


 
</svg>
