<?xml version="1.0" encoding="UTF-8"?>
<svg width="700pt" height="700pt" version="1.1" viewBox="0 0 700 700" xmlns="http://www.w3.org/2000/svg" xmlns:xlink="http://www.w3.org/1999/xlink">

 <g transform="translate(0,50)" fill='#F8AD07'>
  <path d="m440.89 14h-181.77c-20.44 0.01-40.05 8.14-54.51 22.6-14.45 14.45-22.58 34.06-22.6 54.51v377.77c0.015 20.44 8.14 40.05 22.6 54.51 14.45 14.45 34.06 22.58 54.51 22.6h181.77c20.44-0.015 
    40.05-8.14 54.51-22.6 14.45-14.45 22.58-34.06 22.6-54.51v-377.77c-0.015-20.44-8.14-40.05-22.6-54.51-14.45-14.45-34.06-22.58-54.51-22.6zm49.11 454.89c-0.03 13.01-5.21 25.49-14.41 34.69s-21.68 
    14.387-34.695 14.418h-181.77c-13.016-0.03125-25.492-5.2148-34.695-14.418s-14.387-21.68-14.418-34.695v-377.77c0.03125-13.016 5.21-25.49 14.41-34.69s21.68-14.38 34.69-14.41h181.77c13.01 0.031 25.49 5.21 34.69 14.41s14.38 
    21.68 14.41 34.69"/>
  <path fill='#e4003a' d="m403.2 453.6h-106.4c-7.73 0-14 6.26-14 14 0 7.73 6.26 14 14 14h106.4c7.73 0 14-6.26 14-14 0-7.73-6.26-14-14-14z"/>
 </g>
</svg>
